#define connecting_width 16
#define connecting_height 16
static unsigned char connecting_bits[] = {
   0x26, 0x64, 0x33, 0xcc, 0x19, 0x98, 0xcc, 0x33, 0xe6, 0x67, 0x73, 0xce,
   0x30, 0x0c, 0x00, 0x0c, 0x00, 0x0e, 0x00, 0x07, 0x83, 0xc3, 0x86, 0x61,
   0x8c, 0x31, 0x19, 0x98, 0xb3, 0xcd, 0xa6, 0x65 };
