#define digit_eight_width 4
#define digit_eight_height 7
static unsigned char digit_eight_bits[] = {
  0x06, 0x09, 0x09, 0x06, 0x09, 0x09, 0x06 };
