#define digit_three_width 4
#define digit_three_height 7
static unsigned char digit_three_bits[] = {
  0x06, 0x08, 0x08, 0x06, 0x08, 0x08, 0x06 };
