#define digit_one_width 4
#define digit_one_height 7
static char digit_one_bits[] = {
  0x00, 0x08, 0x08, 0x00, 0x08, 0x08, 0x00, };
