#define digit_five_width 4
#define digit_five_height 7
static char digit_five_bits[] = {
  0x06, 0x01, 0x01, 0x06, 0x08, 0x08, 0x06, };
