#define digit_six_width 4
#define digit_six_height 7
static char digit_six_bits[] = {
  0x06, 0x01, 0x01, 0x06, 0x09, 0x09, 0x06, };
