#define digit_seven_width 4
#define digit_seven_height 7
static unsigned char digit_seven_bits[] = {
  0x06, 0x08, 0x08, 0x00, 0x08, 0x08, 0x00 };
