#define digit_four_width 4
#define digit_four_height 7
static unsigned char digit_four_bits[] = {
  0x00, 0x09, 0x09, 0x06, 0x08, 0x08, 0x00 };
