#define digit_nine_width 4
#define digit_nine_height 7
static char digit_nine_bits[] = {
  0x06, 0x09, 0x09, 0x06, 0x08, 0x08, 0x06, };
