#define digit_two_width 4
#define digit_two_height 7
static char digit_two_bits[] = {
  0x06, 0x08, 0x08, 0x06, 0x01, 0x01, 0x06, };
