#define digit_zero_width 4
#define digit_zero_height 7
static unsigned char digit_zero_bits[] = {
  0x06, 0x09, 0x09, 0x00, 0x09, 0x09, 0x06 };
