#define digit_dot_width 3
#define digit_dot_height 7
static char digit_dot_bits[] = {
  0x00, 0x00, 0x00, 0x00, 0x00, 0x00, 0x02, };
