#define not_connected_width 16
#define not_connected_height 16
static unsigned char not_connected_bits[] = {
   0x26, 0x64, 0x33, 0xcc, 0x99, 0x99, 0x8c, 0x31, 0x86, 0x61, 0x83, 0xc1,
   0x80, 0x01, 0x80, 0x01, 0x80, 0x01, 0x80, 0x01, 0x83, 0xc1, 0x86, 0x61,
   0x0c, 0x30, 0x99, 0x99, 0xb3, 0xcd, 0x26, 0x64 };
